<?xml version="1.0" encoding="iso-8859-1"?>
<!-- Uploaded to: SVG Repo, www.svgrepo.com, Generator: SVG Repo Mixer Tools -->
<svg fill="#000000" height="800px" width="800px" version="1.1" id="Layer_1" xmlns="http://www.w3.org/2000/svg" xmlns:xlink="http://www.w3.org/1999/xlink" 
	 viewBox="0 0 512 512" xml:space="preserve">
<g>
	<g>
		<path d="M484.48,203.064c-9.094-12.284-23.074-19.328-38.358-19.328h-35.755l7.026-58.751H51.779L87.56,424.185H18.113v16.696
			c0,39.215,31.904,71.119,71.119,71.119H379.94c39.215,0,71.119-31.904,71.119-71.119v-16.696h-69.446l5.897-49.312h29.41
			c21.133,0,39.479-13.581,45.647-33.795l29.202-95.685C496.23,230.775,493.574,215.347,484.48,203.064z M379.772,158.376
			l-31.789,265.809H121.189L89.401,158.376H379.772z M413.768,457.577c-6.17,12.452-19.015,21.032-33.829,21.032H89.232
			c-14.813,0-27.659-8.581-33.83-21.032H413.768z M459.832,235.645l-29.202,95.686c-1.853,6.071-7.362,10.15-13.709,10.15h-25.416
			l14.871-124.355h39.748c4.59,0,8.789,2.116,11.521,5.806C460.375,226.621,461.173,231.255,459.832,235.645z"/>
	</g>
</g>
<g>
	<g>
		<path d="M194.7,35.851c0-4.512,0.798-5.902,2.928-9.616c2.931-5.106,7.358-12.823,7.358-26.236h-33.391
			c0,4.513-0.798,5.902-2.928,9.617c-2.931,5.106-7.358,12.822-7.358,26.236c0,13.413,4.429,21.13,7.358,26.236
			c2.13,3.713,2.928,5.103,2.928,9.617c0,4.511-0.797,5.9-2.928,9.612c-2.93,5.106-7.358,12.821-7.358,26.233H194.7
			c0-4.511,0.797-5.9,2.928-9.612c2.931-5.106,7.358-12.822,7.358-26.234c0-13.413-4.429-21.13-7.358-26.236
			C195.498,41.755,194.7,40.365,194.7,35.851z"/>
	</g>
</g>
<g>
	<g>
		<path d="M297.576,35.851c0-4.512,0.798-5.901,2.928-9.614c2.931-5.107,7.359-12.823,7.359-26.237h-33.391
			c0,4.512-0.798,5.902-2.928,9.616c-2.932,5.106-7.359,12.823-7.359,26.236c0,13.413,4.429,21.13,7.359,26.237
			c2.13,3.713,2.928,5.103,2.928,9.616c0,4.51-0.798,5.899-2.928,9.612c-2.93,5.107-7.359,12.822-7.359,26.234h33.391
			c0-4.51,0.798-5.899,2.928-9.612c2.931-5.106,7.359-12.822,7.359-26.234c0-13.413-4.429-21.13-7.359-26.237
			C298.374,41.754,297.576,40.363,297.576,35.851z"/>
	</g>
</g>
<g>
	<g>
		<path d="M304.095,221.772c-15.49-15.491-37.498-22.185-61.976-18.85c-22.776,3.104-45.222,14.716-63.2,32.693
			c-17.978,17.978-29.589,40.423-32.693,63.201c-3.335,24.474,3.36,46.484,18.852,61.975c12.889,12.889,30.288,19.688,49.868,19.688
			c3.954,0,7.997-0.277,12.108-0.837c22.777-3.104,45.223-14.716,63.201-32.693c17.978-17.978,29.589-40.423,32.693-63.201
			C326.282,259.273,319.587,237.263,304.095,221.772z M179.588,319.063c-3.314-18.275,4.979-41.875,22.942-59.838
			c15.37-15.369,34.865-23.662,51.622-23.662c4.443,0,8.692,0.588,12.621,1.778c-0.058,0.024-0.114,0.048-0.171,0.072
			c-7.386,3.096-16.58,6.951-28.518,18.889c-11.938,11.938-15.794,21.133-18.892,28.521c-2.562,6.111-4.413,10.525-11.709,17.821
			c-7.297,7.296-11.71,9.147-17.822,11.709C186.631,315.623,183.29,317.031,179.588,319.063z M266.642,323.337
			c-19.447,19.445-45.501,27.562-64.25,21.886c0.061-0.026,0.12-0.05,0.183-0.077c7.387-3.098,16.581-6.953,28.521-18.893
			c11.94-11.94,15.794-21.133,18.892-28.521c2.562-6.111,4.413-10.525,11.709-17.821c7.295-7.295,11.709-9.146,17.819-11.707
			c3.03-1.27,6.369-2.678,10.07-4.708C292.896,281.773,284.605,305.374,266.642,323.337z"/>
	</g>
</g>
</svg>